M48
;Layer_Color=9474304
;FILE_FORMAT=4:3
METRIC,LZ
;TYPE=PLATED
T01F00S00C0.120
%
T01
X00006Y000175
X00009
X00014Y000225
X00017
X000285Y000326
X000388Y000296
X000481Y000326
X00037Y000405
X000325Y000141
X000373Y000089
X000625Y000167
X000651Y000237
X000725Y000141
X000797Y000209
X000895Y000225
X000871Y000089
X000815Y000319
X000969Y000339
X000913Y000429
Y000539
X001067Y000229
X001125Y000895
X000775Y000919
X0007255Y0008352
X000673Y000813
X000361Y000783
X000155Y000831
X000075Y000875
X000225Y000911
M30
