M48
;Layer_Color=9474304
;FILE_FORMAT=4:3
METRIC,LZ
;TYPE=PLATED
T02F00S00C0.150
%
T02
X000075Y000075
X000175
X000145Y000145
X0001747Y0002647
X0000816Y0002509
X0000809Y000326
X0000895Y0003769
X000088Y00048
X000089Y000525
X000075Y000725
Y000775
X000155Y000777
X000215Y000795
X000285Y000715
X000383Y000739
X000381Y000679
X000415Y000631
X00038Y000555
X000417Y000501
X000533Y000495
X0004934Y0004493
X0005431Y00036
X000751Y000363
X000738Y000455
X000693Y000495
X000653
X000653Y000535
X000693Y000535
Y000575
X000733
X000773
X000864Y000645
X0008529Y0007197
X0008817Y0007783
X000881Y000819
X0008255Y0008225
X0008248Y0009281
X0008815Y0009602
X000924Y000963
X000975Y00098
X001075Y000975
X001175
X001077Y000875
X001025Y000895
X000935Y000695
X0009338Y0006049
X000659Y000655
X000615Y000654
X0005838Y0006207
X000573Y000695
X000527Y000701
X0005289Y0006602
X000653Y000695
X000653Y000735
X000693Y000739
X000739Y000743
X0007774Y0009738
X0006739Y0009691
X0006258Y0009704
X0005485Y0009942
X000529Y000951
X000475Y000989
X000375Y000975
X000328Y000973
X000265Y000967
X000215Y000975
X0001466Y0009168
X000075Y000975
X000225Y000615
X000485Y000783
X0004491Y0008203
X0006134Y0005404
X000585Y000105
X001175Y000075
M30
