M48
;Layer_Color=9474304
;FILE_FORMAT=4:3
METRIC,LZ
;TYPE=PLATED
T01F00S00C0.120
%
T01
X000135Y000195
X000215
X000375
X000389Y000281
Y000309
X000361
Y000281
X000405Y000115
X000601Y000281
Y000309
X000649
Y000281
X0006259Y0003669
X0006608Y0004476
X0007009Y0004346
X000735Y000495
X000773Y000535
X000817Y000653
X000842Y0007582
X001035Y000785
Y000695
Y000605
X001015Y000525
X000935
X001165Y000605
Y000675
X001175Y000895
X000745Y000945
X000673Y000925
X0005815Y0009627
X000441Y0008637
X0006089Y0007448
X000614Y000704
X000653Y000615
X000541Y0006217
X0005303Y0005816
X0004872Y0005833
X000493Y000495
X000573Y0004896
X0005735Y0005318
X0003667Y0005945
X0003424Y0006314
X000071Y000625
X000225Y000465
X000705Y000205
X001015Y000125
X001115Y000215
M30
