G04*
G04 #@! TF.GenerationSoftware,Altium Limited,Altium Designer,23.10.1 (27)*
G04*
G04 Layer_Physical_Order=3*
G04 Layer_Color=16440176*
%FSLAX43Y43*%
%MOMM*%
G71*
G04*
G04 #@! TF.SameCoordinates,795BF10B-043E-4606-9F91-99BFBDA2EA10*
G04*
G04*
G04 #@! TF.FilePolarity,Positive*
G04*
G01*
G75*
%ADD10C,0.200*%
%ADD11C,0.127*%
%ADD12C,0.203*%
%ADD13C,0.152*%
%ADD36C,0.102*%
%ADD49C,0.150*%
%ADD52C,0.303*%
G36*
X5311Y9360D02*
X5174Y9304D01*
X5084Y9394D01*
X5140Y9531D01*
X5311Y9360D01*
D02*
G37*
G36*
X7826Y8983D02*
X7674D01*
X7630Y9098D01*
X7870D01*
X7826Y8983D01*
D02*
G37*
G36*
X2464Y9066D02*
X2416Y8934D01*
X2265Y8960D01*
X2390Y9166D01*
X2464Y9066D01*
D02*
G37*
G36*
X11271Y9100D02*
X11100Y8929D01*
X11040Y9053D01*
X11147Y9160D01*
X11271Y9100D01*
D02*
G37*
G36*
X871Y8841D02*
X629D01*
X687Y8978D01*
X814D01*
X871Y8841D01*
D02*
G37*
G36*
X11593Y9980D02*
X11549Y9951D01*
X11488Y9859D01*
X11466Y9750D01*
X11488Y9642D01*
X11549Y9550D01*
X11642Y9488D01*
X11750Y9466D01*
X11801Y9425D01*
Y4750D01*
X11650D01*
Y2250D01*
X11801D01*
Y1076D01*
X11750Y1034D01*
X11642Y1012D01*
X11549Y951D01*
X11488Y859D01*
X11466Y750D01*
X11488Y642D01*
X11549Y550D01*
X11593Y520D01*
X11570Y444D01*
X1930D01*
X1907Y520D01*
X1951Y550D01*
X2012Y642D01*
X2034Y750D01*
X2012Y859D01*
X1951Y951D01*
X1859Y1012D01*
X1750Y1034D01*
X1642Y1012D01*
X1550Y951D01*
X1488Y859D01*
X1466Y750D01*
X1488Y642D01*
X1550Y550D01*
X1593Y520D01*
X1570Y444D01*
X930D01*
X907Y520D01*
X951Y550D01*
X1012Y642D01*
X1034Y750D01*
X1012Y859D01*
X951Y951D01*
X859Y1012D01*
X750Y1034D01*
X642Y1012D01*
X550Y951D01*
X520Y907D01*
X444Y930D01*
Y7070D01*
X520Y7093D01*
X550Y7049D01*
X642Y6988D01*
X750Y6966D01*
X859Y6988D01*
X951Y7049D01*
X1012Y7141D01*
X1034Y7250D01*
X1012Y7359D01*
X951Y7451D01*
X934Y7462D01*
Y7538D01*
X951Y7549D01*
X1012Y7642D01*
X1034Y7750D01*
X1012Y7859D01*
X951Y7951D01*
X859Y8012D01*
X750Y8034D01*
X642Y8012D01*
X550Y7951D01*
X520Y7907D01*
X444Y7930D01*
Y8570D01*
X520Y8593D01*
X550Y8550D01*
X642Y8488D01*
X750Y8466D01*
X859Y8488D01*
X951Y8550D01*
X1012Y8642D01*
X1034Y8750D01*
X1012Y8859D01*
X998Y8880D01*
X998Y8894D01*
X944Y9022D01*
Y9190D01*
X1141Y9386D01*
X1183Y9381D01*
X1219Y9299D01*
X1204Y9276D01*
X1182Y9168D01*
X1204Y9059D01*
X1266Y8967D01*
X1358Y8906D01*
X1466Y8884D01*
X1575Y8906D01*
X1667Y8967D01*
X1728Y9059D01*
X1750Y9168D01*
X1746Y9185D01*
X1747Y9187D01*
X1812Y9243D01*
X1850Y9236D01*
X1915D01*
X1976Y9160D01*
X1966Y9110D01*
X1988Y9001D01*
X2049Y8909D01*
X2141Y8848D01*
X2233Y8830D01*
X2242Y8824D01*
X2361Y8804D01*
X2578Y8587D01*
X2549Y8517D01*
X1813D01*
X1685Y8561D01*
X1676Y8560D01*
X1659Y8572D01*
X1550Y8594D01*
X1441Y8572D01*
X1349Y8511D01*
X1288Y8418D01*
X1266Y8310D01*
X1288Y8201D01*
X1349Y8109D01*
X1385Y8086D01*
Y7994D01*
X1349Y7971D01*
X1288Y7879D01*
X1266Y7770D01*
X1288Y7661D01*
X1349Y7569D01*
X1441Y7508D01*
X1550Y7486D01*
X1659Y7508D01*
X1751Y7569D01*
X1812Y7661D01*
X1834Y7770D01*
X1829Y7792D01*
X1901Y7822D01*
X1949Y7749D01*
X2041Y7688D01*
X2150Y7666D01*
X2258Y7688D01*
X2351Y7749D01*
X2412Y7841D01*
X2434Y7950D01*
X2418Y8027D01*
X2467Y8103D01*
X2564D01*
X2873Y7794D01*
Y7520D01*
X2873Y7520D01*
X2889Y7441D01*
X2933Y7374D01*
X3477Y6830D01*
X3537Y6708D01*
X3544Y6702D01*
X3548Y6681D01*
X3609Y6589D01*
X3701Y6528D01*
X3810Y6506D01*
X3862Y6517D01*
X3908Y6448D01*
X3888Y6418D01*
X3866Y6310D01*
X3888Y6201D01*
X3949Y6109D01*
X4041Y6048D01*
X4150Y6026D01*
X4258Y6048D01*
X4351Y6109D01*
X4412Y6201D01*
X4434Y6310D01*
X4412Y6418D01*
X4351Y6511D01*
X4258Y6572D01*
X4150Y6594D01*
X4098Y6583D01*
X4052Y6652D01*
X4072Y6681D01*
X4094Y6790D01*
X4072Y6899D01*
X4011Y6991D01*
X3925Y7048D01*
X3923Y7074D01*
X3933Y7127D01*
X3938Y7128D01*
X4030Y7189D01*
X4092Y7281D01*
X4114Y7390D01*
X4092Y7499D01*
X4030Y7591D01*
X3938Y7652D01*
X3897Y7660D01*
X3872Y7721D01*
X3894Y7830D01*
X3872Y7939D01*
X3811Y8031D01*
X3719Y8092D01*
X3693Y8097D01*
X3683Y8107D01*
X3555Y8159D01*
X2649Y9066D01*
X2678Y9136D01*
X5110D01*
X5184Y9151D01*
X5224Y9177D01*
X5226Y9177D01*
X5364Y9233D01*
X5373Y9243D01*
X5399Y9248D01*
X5491Y9309D01*
X5552Y9402D01*
X5574Y9510D01*
X5557Y9595D01*
X5592Y9675D01*
X5600Y9684D01*
X5686Y9741D01*
X5747Y9833D01*
X5769Y9942D01*
X5761Y9980D01*
X5824Y10056D01*
X6209D01*
X6216Y9980D01*
X6149Y9966D01*
X6057Y9905D01*
X5995Y9813D01*
X5974Y9704D01*
X5995Y9596D01*
X6057Y9504D01*
X6149Y9442D01*
X6258Y9421D01*
X6366Y9442D01*
X6444Y9494D01*
X6530Y9502D01*
X6538Y9490D01*
X6630Y9429D01*
X6739Y9407D01*
X6847Y9429D01*
X6939Y9490D01*
X7001Y9582D01*
X7022Y9691D01*
X7001Y9799D01*
X6939Y9891D01*
X6847Y9953D01*
X6739Y9974D01*
X6630Y9953D01*
X6552Y9901D01*
X6466Y9893D01*
X6458Y9905D01*
X6366Y9966D01*
X6299Y9980D01*
X6306Y10056D01*
X7613D01*
X7636Y9980D01*
X7574Y9938D01*
X7512Y9846D01*
X7491Y9738D01*
X7512Y9629D01*
X7574Y9537D01*
X7605Y9516D01*
X7603Y9426D01*
X7549Y9391D01*
X7488Y9299D01*
X7466Y9190D01*
X7488Y9081D01*
X7502Y9060D01*
X7502Y9049D01*
X7545Y8934D01*
X7555Y8924D01*
X7559Y8904D01*
X7604Y8836D01*
X7856Y8583D01*
X7856Y8583D01*
X7924Y8539D01*
X8003Y8523D01*
X8063D01*
X8086Y8447D01*
X8054Y8425D01*
X7993Y8333D01*
X7971Y8225D01*
X7993Y8116D01*
X8054Y8024D01*
X8146Y7963D01*
X8255Y7941D01*
X8363Y7963D01*
X8456Y8024D01*
X8479Y8059D01*
X8485Y8061D01*
X8567Y8054D01*
X8609Y7989D01*
X8575Y7921D01*
X8555Y7891D01*
X8534Y7783D01*
X8555Y7674D01*
X8617Y7582D01*
X8709Y7521D01*
X8817Y7499D01*
X8926Y7521D01*
X9018Y7582D01*
X9080Y7674D01*
X9101Y7783D01*
X9080Y7891D01*
X9018Y7983D01*
X9052Y8052D01*
X9072Y8081D01*
X9094Y8190D01*
X9072Y8299D01*
X9011Y8391D01*
X8987Y8406D01*
X8970Y8509D01*
X8981Y8523D01*
X9380D01*
X9380Y8523D01*
X9459Y8539D01*
X9526Y8583D01*
X9895Y8952D01*
X9972Y8921D01*
X9988Y8841D01*
X10049Y8749D01*
X10141Y8688D01*
X10250Y8666D01*
X10359Y8688D01*
X10414Y8725D01*
X10498Y8693D01*
X10508Y8642D01*
X10569Y8550D01*
X10661Y8488D01*
X10770Y8466D01*
X10878Y8488D01*
X10971Y8550D01*
X11032Y8642D01*
X11040Y8680D01*
X11110Y8709D01*
X11141Y8688D01*
X11250Y8666D01*
X11359Y8688D01*
X11451Y8749D01*
X11512Y8841D01*
X11534Y8950D01*
X11512Y9059D01*
X11451Y9151D01*
X11359Y9212D01*
X11338Y9216D01*
X11332Y9223D01*
X11210Y9283D01*
X11024Y9469D01*
X10995Y9489D01*
X10989Y9496D01*
X10973Y9579D01*
X10975Y9586D01*
X11012Y9642D01*
X11034Y9750D01*
X11012Y9859D01*
X10951Y9951D01*
X10907Y9980D01*
X10930Y10056D01*
X11570D01*
X11593Y9980D01*
D02*
G37*
G36*
X1771Y8386D02*
Y8234D01*
X1641Y8189D01*
Y8431D01*
X1771Y8386D01*
D02*
G37*
G36*
X3631Y7980D02*
X3460Y7809D01*
X3404Y7946D01*
X3494Y8036D01*
X3631Y7980D01*
D02*
G37*
G36*
X3831Y6940D02*
X3660Y6769D01*
X3600Y6893D01*
X3707Y7000D01*
X3831Y6940D01*
D02*
G37*
%LPC*%
G36*
X7255Y8636D02*
X7147Y8614D01*
X7055Y8553D01*
X6993Y8461D01*
X6978Y8386D01*
X6901Y8351D01*
X6900Y8351D01*
X6839Y8392D01*
X6730Y8414D01*
X6621Y8392D01*
X6529Y8331D01*
X6468Y8239D01*
X6464Y8218D01*
X6457Y8212D01*
X6397Y8090D01*
X6383Y8076D01*
X6338Y8009D01*
X6323Y7930D01*
X6323Y7930D01*
Y7613D01*
X6279Y7485D01*
X6279Y7476D01*
X6268Y7459D01*
X6246Y7350D01*
X6268Y7241D01*
X6329Y7150D01*
X6268Y7059D01*
X6246Y6950D01*
X6261Y6879D01*
X6203Y6814D01*
X6202Y6813D01*
X6150Y6824D01*
X6057Y6805D01*
X6041Y6814D01*
X6017Y6836D01*
X5997Y6864D01*
X6014Y6950D01*
X5992Y7059D01*
X5931Y7151D01*
X5839Y7212D01*
X5730Y7234D01*
X5621Y7212D01*
X5529Y7151D01*
X5511D01*
X5471Y7211D01*
X5379Y7272D01*
X5270Y7294D01*
X5161Y7272D01*
X5069Y7211D01*
X5008Y7119D01*
X4986Y7010D01*
X5008Y6901D01*
X5069Y6809D01*
X5086Y6799D01*
X5027Y6711D01*
X5005Y6602D01*
X5027Y6494D01*
X5088Y6401D01*
X5181Y6340D01*
X5289Y6318D01*
X5398Y6340D01*
X5490Y6401D01*
X5551Y6494D01*
X5573Y6602D01*
X5567Y6633D01*
X5592Y6659D01*
X5634Y6685D01*
X5730Y6666D01*
X5823Y6685D01*
X5839Y6676D01*
X5863Y6654D01*
X5883Y6626D01*
X5866Y6540D01*
X5810Y6485D01*
X5729Y6469D01*
X5637Y6408D01*
X5576Y6316D01*
X5554Y6207D01*
X5576Y6099D01*
X5637Y6006D01*
X5729Y5945D01*
X5838Y5923D01*
X5946Y5945D01*
X6039Y6006D01*
X6100Y6099D01*
X6122Y6207D01*
X6178Y6262D01*
X6258Y6278D01*
X6351Y6339D01*
X6412Y6431D01*
X6434Y6540D01*
X6420Y6611D01*
X6477Y6676D01*
X6478Y6677D01*
X6530Y6666D01*
X6639Y6688D01*
X6656Y6700D01*
X6666Y6699D01*
X6793Y6743D01*
X7470D01*
X7470Y6743D01*
X7549Y6759D01*
X7616Y6804D01*
X7936Y7124D01*
X7981Y7191D01*
X7997Y7270D01*
X7997Y7270D01*
Y7817D01*
X7981Y7897D01*
X7936Y7964D01*
X7936Y7964D01*
X7588Y8312D01*
X7528Y8434D01*
X7521Y8440D01*
X7517Y8461D01*
X7456Y8553D01*
X7364Y8614D01*
X7255Y8636D01*
D02*
G37*
G36*
X4491Y8487D02*
X4382Y8465D01*
X4290Y8404D01*
X4229Y8312D01*
X4207Y8203D01*
X4229Y8095D01*
X4290Y8003D01*
X4382Y7941D01*
X4491Y7920D01*
X4507Y7923D01*
X4572Y7858D01*
X4566Y7830D01*
X4588Y7722D01*
X4649Y7630D01*
X4741Y7568D01*
X4850Y7546D01*
X4959Y7568D01*
X5051Y7630D01*
X5112Y7722D01*
X5134Y7830D01*
X5112Y7939D01*
X5051Y8031D01*
X4959Y8092D01*
X4850Y8114D01*
X4834Y8111D01*
X4769Y8175D01*
X4775Y8203D01*
X4753Y8312D01*
X4691Y8404D01*
X4599Y8465D01*
X4491Y8487D01*
D02*
G37*
G36*
X8529Y7481D02*
X8420Y7459D01*
X8328Y7398D01*
X8267Y7306D01*
X8245Y7197D01*
X8267Y7088D01*
X8328Y6996D01*
X8420Y6935D01*
X8529Y6913D01*
X8637Y6935D01*
X8730Y6996D01*
X8791Y7088D01*
X8813Y7197D01*
X8791Y7306D01*
X8730Y7398D01*
X8637Y7459D01*
X8529Y7481D01*
D02*
G37*
G36*
X8640Y6734D02*
X8531Y6712D01*
X8439Y6651D01*
X8378Y6559D01*
X8356Y6450D01*
X8378Y6341D01*
X8439Y6249D01*
X8531Y6188D01*
X8640Y6166D01*
X8749Y6188D01*
X8841Y6249D01*
X8902Y6341D01*
X8924Y6450D01*
X8902Y6559D01*
X8841Y6651D01*
X8749Y6712D01*
X8640Y6734D01*
D02*
G37*
G36*
X2250Y6434D02*
X2141Y6412D01*
X2049Y6351D01*
X1988Y6258D01*
X1966Y6150D01*
X1988Y6041D01*
X2049Y5949D01*
X2141Y5888D01*
X2250Y5866D01*
X2359Y5888D01*
X2451Y5949D01*
X2512Y6041D01*
X2534Y6150D01*
X2512Y6258D01*
X2451Y6351D01*
X2359Y6412D01*
X2250Y6434D01*
D02*
G37*
G36*
X9338Y6333D02*
X9230Y6311D01*
X9138Y6250D01*
X9076Y6158D01*
X9054Y6049D01*
X9076Y5940D01*
X9138Y5848D01*
X9230Y5787D01*
X9338Y5765D01*
X9447Y5787D01*
X9539Y5848D01*
X9600Y5940D01*
X9622Y6049D01*
X9600Y6158D01*
X9539Y6250D01*
X9447Y6311D01*
X9338Y6333D01*
D02*
G37*
G36*
X7950Y6231D02*
X6810D01*
X6741Y6218D01*
X6682Y6178D01*
X6402Y5898D01*
X6362Y5839D01*
X6349Y5770D01*
Y5687D01*
X6273Y5646D01*
X6272Y5646D01*
X6242Y5666D01*
X6134Y5688D01*
X6025Y5666D01*
X5933Y5605D01*
X5872Y5513D01*
X5850Y5404D01*
X5872Y5296D01*
X5933Y5204D01*
X6025Y5142D01*
X6134Y5120D01*
X6231Y5140D01*
X6260Y5113D01*
X6281Y5078D01*
X6268Y5059D01*
X6246Y4950D01*
X6268Y4841D01*
X6330Y4749D01*
X6422Y4688D01*
X6530Y4666D01*
X6639Y4688D01*
X6731Y4749D01*
X6792Y4841D01*
X6814Y4950D01*
X6800Y5017D01*
X6863Y5080D01*
X6930Y5066D01*
X7039Y5088D01*
X7131Y5149D01*
X7192Y5241D01*
X7214Y5350D01*
X7200Y5418D01*
X7262Y5480D01*
X7330Y5466D01*
X7439Y5488D01*
X7530Y5549D01*
X7621Y5488D01*
X7730Y5466D01*
X7839Y5488D01*
X7931Y5549D01*
X7992Y5642D01*
X7995Y5654D01*
X8067Y5676D01*
X8482Y5262D01*
X8541Y5222D01*
X8610Y5209D01*
X8851D01*
X8979Y5146D01*
X8997Y5145D01*
X9022Y5128D01*
X9130Y5106D01*
X9239Y5128D01*
X9331Y5189D01*
X9392Y5281D01*
X9414Y5390D01*
X9392Y5499D01*
X9331Y5591D01*
X9239Y5652D01*
X9130Y5674D01*
X9022Y5652D01*
X8997Y5635D01*
X8979Y5634D01*
X8851Y5571D01*
X8685D01*
X8078Y6178D01*
X8019Y6218D01*
X7950Y6231D01*
D02*
G37*
G36*
X3800Y5834D02*
X3691Y5812D01*
X3599Y5751D01*
X3538Y5659D01*
X3516Y5550D01*
X3538Y5441D01*
X3599Y5349D01*
X3691Y5288D01*
X3800Y5266D01*
X3908Y5288D01*
X4001Y5349D01*
X4062Y5441D01*
X4084Y5550D01*
X4062Y5659D01*
X4001Y5751D01*
X3908Y5812D01*
X3800Y5834D01*
D02*
G37*
G36*
X4170Y5294D02*
X4061Y5272D01*
X3969Y5211D01*
X3908Y5119D01*
X3886Y5010D01*
X3908Y4901D01*
X3920Y4884D01*
X3919Y4874D01*
X3953Y4777D01*
X3893Y4730D01*
X3888Y4729D01*
X3843Y4759D01*
X3755Y4776D01*
X3455D01*
X3366Y4759D01*
X3291Y4708D01*
X2686Y4104D01*
X2636Y4029D01*
X2619Y3940D01*
Y3495D01*
X2615Y3489D01*
X2594Y3378D01*
X2588Y3369D01*
X2566Y3260D01*
X2588Y3151D01*
X2649Y3059D01*
X2741Y2998D01*
X2850Y2976D01*
X2959Y2998D01*
X3051Y3059D01*
X3112Y3151D01*
X3134Y3260D01*
X3112Y3369D01*
X3106Y3378D01*
X3085Y3489D01*
X3081Y3495D01*
Y3844D01*
X3352Y4114D01*
X3422Y4077D01*
X3416Y4050D01*
X3438Y3941D01*
X3444Y3932D01*
X3465Y3821D01*
X3469Y3815D01*
Y3140D01*
X3486Y3052D01*
X3536Y2976D01*
X3550Y2962D01*
X3552Y2956D01*
X3616Y2863D01*
X3618Y2851D01*
X3680Y2759D01*
X3772Y2698D01*
X3880Y2676D01*
X3989Y2698D01*
X4081Y2759D01*
X4142Y2851D01*
X4164Y2960D01*
X4142Y3069D01*
X4081Y3161D01*
X3989Y3222D01*
X3977Y3224D01*
X3931Y3256D01*
Y3815D01*
X3935Y3821D01*
X3952Y3913D01*
X3999Y3936D01*
X4033Y3939D01*
X4561Y3412D01*
X4555Y3379D01*
X4548Y3369D01*
X4526Y3260D01*
X4548Y3151D01*
X4609Y3059D01*
X4701Y2998D01*
X4810Y2976D01*
X4919Y2998D01*
X5011Y3059D01*
X5072Y3151D01*
X5094Y3260D01*
X5080Y3327D01*
X5128Y3386D01*
X5139Y3394D01*
X5140Y3394D01*
X5167D01*
X5294Y3349D01*
X5304Y3350D01*
X5322Y3338D01*
X5431Y3316D01*
X5539Y3338D01*
X5631Y3399D01*
X5693Y3491D01*
X5714Y3600D01*
X5693Y3709D01*
X5631Y3801D01*
X5539Y3862D01*
X5431Y3884D01*
X5322Y3862D01*
X5304Y3850D01*
X5294Y3851D01*
X5206Y3820D01*
X4376Y4649D01*
Y4746D01*
X4421Y4874D01*
X4420Y4884D01*
X4432Y4901D01*
X4454Y5010D01*
X4432Y5119D01*
X4371Y5211D01*
X4279Y5272D01*
X4170Y5294D01*
D02*
G37*
G36*
X890Y5534D02*
X782Y5512D01*
X689Y5451D01*
X628Y5359D01*
X606Y5250D01*
X628Y5141D01*
X689Y5049D01*
X663Y4976D01*
X618Y4909D01*
X596Y4800D01*
X618Y4691D01*
X679Y4599D01*
X771Y4538D01*
X880Y4516D01*
X989Y4538D01*
X1081Y4599D01*
X1142Y4691D01*
X1164Y4800D01*
X1142Y4909D01*
X1081Y5001D01*
X1107Y5074D01*
X1152Y5141D01*
X1174Y5250D01*
X1152Y5359D01*
X1091Y5451D01*
X999Y5512D01*
X890Y5534D01*
D02*
G37*
G36*
X895Y4053D02*
X786Y4031D01*
X694Y3970D01*
X633Y3878D01*
X611Y3769D01*
X633Y3661D01*
X679Y3592D01*
X689Y3557D01*
X664Y3498D01*
X608Y3461D01*
X547Y3369D01*
X525Y3260D01*
X547Y3151D01*
X608Y3059D01*
X700Y2998D01*
X809Y2976D01*
X918Y2998D01*
X1010Y3059D01*
X1071Y3151D01*
X1093Y3260D01*
X1071Y3369D01*
X1025Y3437D01*
X1014Y3472D01*
X1040Y3532D01*
X1095Y3569D01*
X1157Y3661D01*
X1179Y3769D01*
X1157Y3878D01*
X1095Y3970D01*
X1003Y4031D01*
X895Y4053D01*
D02*
G37*
G36*
X816Y2793D02*
X708Y2771D01*
X615Y2710D01*
X554Y2618D01*
X532Y2509D01*
X554Y2400D01*
X615Y2308D01*
X708Y2247D01*
X816Y2225D01*
X925Y2247D01*
X1017Y2308D01*
X1078Y2400D01*
X1100Y2509D01*
X1078Y2618D01*
X1017Y2710D01*
X925Y2771D01*
X816Y2793D01*
D02*
G37*
G36*
X7380Y4834D02*
X7271Y4812D01*
X7179Y4751D01*
X7118Y4659D01*
X7096Y4550D01*
X7118Y4442D01*
X7124Y4432D01*
X7143Y4324D01*
X7147Y4318D01*
Y3760D01*
X7165Y3671D01*
X7190Y3632D01*
X7195Y3610D01*
X7244Y3539D01*
X7248Y3521D01*
X7297Y3447D01*
X7270Y3371D01*
X6480D01*
X6411Y3358D01*
X6352Y3318D01*
X4985Y1951D01*
X3090D01*
X3055Y1944D01*
X3021Y1937D01*
X3021Y1937D01*
X3021Y1937D01*
X2990Y1917D01*
X2962Y1898D01*
X2962Y1898D01*
X2962Y1898D01*
X2962Y1898D01*
X2782Y1718D01*
X2782Y1718D01*
X2782Y1718D01*
X2762Y1688D01*
X2742Y1660D01*
X2742Y1660D01*
X2742Y1659D01*
X2735Y1624D01*
X2729Y1590D01*
X2729Y1590D01*
X2729Y1590D01*
Y1170D01*
X2742Y1101D01*
X2782Y1042D01*
X2862Y962D01*
X2921Y922D01*
X2990Y909D01*
X3373D01*
X3396Y903D01*
X3455Y844D01*
X3468Y782D01*
X3529Y689D01*
X3621Y628D01*
X3730Y606D01*
X3839Y628D01*
X3931Y689D01*
X3992Y782D01*
X3998Y811D01*
X4010Y824D01*
X4042Y919D01*
X5460D01*
X5513Y929D01*
X5588Y942D01*
X5649Y849D01*
X5741Y788D01*
X5850Y766D01*
X5959Y788D01*
X6051Y849D01*
X6112Y942D01*
X6134Y1050D01*
X6130Y1070D01*
X6178Y1129D01*
X6390D01*
X6459Y1142D01*
X6518Y1182D01*
X6962Y1626D01*
X6969Y1627D01*
X7007Y1581D01*
X7015Y1560D01*
X6988Y1519D01*
X6966Y1410D01*
X6988Y1301D01*
X7049Y1209D01*
X7141Y1148D01*
X7250Y1126D01*
X7359Y1148D01*
X7451Y1209D01*
X7512Y1301D01*
X7516Y1322D01*
X7523Y1328D01*
X7583Y1450D01*
X7635Y1502D01*
X9379D01*
X9379Y1502D01*
X9458Y1517D01*
X9525Y1562D01*
X10026Y2063D01*
X10026Y2063D01*
X10071Y2131D01*
X10087Y2210D01*
X10087Y2210D01*
Y3200D01*
X10087Y3200D01*
X10071Y3279D01*
X10026Y3346D01*
X10023Y3350D01*
X9963Y3472D01*
X9956Y3478D01*
X9952Y3499D01*
X9891Y3591D01*
X9798Y3652D01*
X9690Y3674D01*
X9581Y3652D01*
X9489Y3591D01*
X9428Y3499D01*
X9406Y3390D01*
X9428Y3281D01*
X9489Y3189D01*
X9581Y3128D01*
X9602Y3124D01*
X9608Y3117D01*
X9673Y3085D01*
Y2296D01*
X9293Y1916D01*
X9112D01*
X9104Y1928D01*
X9124Y2031D01*
X9151Y2049D01*
X9212Y2141D01*
X9234Y2250D01*
X9212Y2359D01*
X9151Y2451D01*
X9059Y2512D01*
X9029Y2518D01*
X9016Y2530D01*
X8865Y2581D01*
X8864Y2581D01*
X8839Y2598D01*
X8770Y2611D01*
X8695D01*
X8664Y2687D01*
X9258Y3282D01*
X9298Y3341D01*
X9311Y3410D01*
Y4011D01*
X9374Y4139D01*
X9376Y4157D01*
X9392Y4182D01*
X9414Y4290D01*
X9392Y4399D01*
X9331Y4491D01*
X9239Y4552D01*
X9130Y4574D01*
X9022Y4552D01*
X8929Y4491D01*
X8868Y4399D01*
X8846Y4290D01*
X8868Y4182D01*
X8885Y4157D01*
X8886Y4139D01*
X8949Y4011D01*
Y3485D01*
X8419Y2956D01*
X8360Y3004D01*
X8412Y3081D01*
X8434Y3190D01*
X8412Y3299D01*
X8351Y3391D01*
X8258Y3452D01*
X8150Y3474D01*
X8041Y3452D01*
X8016Y3435D01*
X7998Y3434D01*
X7870Y3371D01*
X7750D01*
X7723Y3447D01*
X7772Y3521D01*
X7794Y3630D01*
X7772Y3739D01*
X7711Y3831D01*
X7619Y3892D01*
X7613Y3893D01*
Y4318D01*
X7617Y4324D01*
X7636Y4432D01*
X7642Y4442D01*
X7664Y4550D01*
X7642Y4659D01*
X7581Y4751D01*
X7489Y4812D01*
X7380Y4834D01*
D02*
G37*
G36*
X1450Y1734D02*
X1341Y1712D01*
X1249Y1651D01*
X1188Y1558D01*
X1166Y1450D01*
X1188Y1341D01*
X1249Y1249D01*
X1341Y1188D01*
X1450Y1166D01*
X1558Y1188D01*
X1651Y1249D01*
X1712Y1341D01*
X1734Y1450D01*
X1712Y1558D01*
X1651Y1651D01*
X1558Y1712D01*
X1450Y1734D01*
D02*
G37*
G36*
X10670Y2574D02*
X10562Y2552D01*
X10469Y2491D01*
X10408Y2399D01*
X10386Y2290D01*
X10408Y2182D01*
X10420Y2164D01*
X10419Y2155D01*
X10463Y2027D01*
Y1516D01*
X10044Y1097D01*
X8973D01*
X8845Y1141D01*
X8836Y1140D01*
X8819Y1152D01*
X8710Y1174D01*
X8601Y1152D01*
X8509Y1091D01*
X8448Y999D01*
X8426Y890D01*
X8448Y782D01*
X8509Y689D01*
X8601Y628D01*
X8710Y606D01*
X8819Y628D01*
X8836Y640D01*
X8845Y639D01*
X8973Y683D01*
X10130D01*
X10130Y683D01*
X10209Y699D01*
X10277Y744D01*
X10817Y1284D01*
X10817Y1284D01*
X10861Y1351D01*
X10877Y1430D01*
X10877Y1430D01*
Y2027D01*
X10921Y2155D01*
X10920Y2164D01*
X10932Y2182D01*
X10954Y2290D01*
X10932Y2399D01*
X10871Y2491D01*
X10779Y2552D01*
X10670Y2574D01*
D02*
G37*
%LPD*%
G36*
X7466Y8249D02*
X7358Y8142D01*
X7234Y8202D01*
X7405Y8373D01*
X7466Y8249D01*
D02*
G37*
G36*
X6751Y7980D02*
X6627Y7920D01*
X6520Y8027D01*
X6580Y8151D01*
X6751Y7980D01*
D02*
G37*
G36*
X6651Y7441D02*
X6409D01*
X6454Y7571D01*
X6606D01*
X6651Y7441D01*
D02*
G37*
G36*
X6752Y7026D02*
Y6874D01*
X6621Y6829D01*
Y7071D01*
X6752Y7026D01*
D02*
G37*
G36*
X6651Y5441D02*
X6409D01*
X6479Y5583D01*
X6581D01*
X6651Y5441D01*
D02*
G37*
G36*
X9039Y5269D02*
X8897Y5339D01*
Y5441D01*
X9039Y5511D01*
Y5269D01*
D02*
G37*
G36*
X4245Y4788D02*
X4095D01*
X4049Y4919D01*
X4291D01*
X4245Y4788D01*
D02*
G37*
G36*
X3800Y3846D02*
X3600D01*
X3579Y3959D01*
X3821D01*
X3800Y3846D01*
D02*
G37*
G36*
X5340Y3479D02*
X5209Y3525D01*
Y3675D01*
X5340Y3721D01*
Y3479D01*
D02*
G37*
G36*
X4931Y3351D02*
X4689D01*
X4710Y3464D01*
X4910D01*
X4931Y3351D01*
D02*
G37*
G36*
X2971Y3351D02*
X2729D01*
X2750Y3464D01*
X2950D01*
X2971Y3351D01*
D02*
G37*
G36*
X3901Y3110D02*
X3730Y2939D01*
X3665Y3034D01*
X3806Y3175D01*
X3901Y3110D01*
D02*
G37*
G36*
X7482Y4347D02*
X7278D01*
X7259Y4459D01*
X7501D01*
X7482Y4347D01*
D02*
G37*
G36*
X9181Y4057D02*
X9079D01*
X9009Y4199D01*
X9251D01*
X9181Y4057D01*
D02*
G37*
G36*
X7526Y3780D02*
X7360Y3614D01*
X7308Y3688D01*
X7452Y3832D01*
X7526Y3780D01*
D02*
G37*
G36*
X9900Y3287D02*
X9793Y3180D01*
X9669Y3240D01*
X9840Y3411D01*
X9900Y3287D01*
D02*
G37*
G36*
X8059Y3069D02*
X7917Y3139D01*
Y3241D01*
X8059Y3311D01*
Y3069D01*
D02*
G37*
G36*
X6743Y2421D02*
Y2319D01*
X6601Y2249D01*
Y2491D01*
X6743Y2421D01*
D02*
G37*
G36*
X8971Y2400D02*
X8800Y2229D01*
X8749Y2379D01*
X8821Y2451D01*
X8971Y2400D01*
D02*
G37*
G36*
X7879Y1969D02*
X7737Y2039D01*
Y2141D01*
X7879Y2211D01*
Y1969D01*
D02*
G37*
G36*
X6159Y1549D02*
X6017Y1619D01*
Y1721D01*
X6159Y1791D01*
Y1549D01*
D02*
G37*
G36*
X3426Y1514D02*
X3400Y1392D01*
X3232Y1560D01*
X3354Y1586D01*
X3426Y1514D01*
D02*
G37*
G36*
X7460Y1513D02*
X7400Y1389D01*
X7229Y1560D01*
X7353Y1620D01*
X7460Y1513D01*
D02*
G37*
G36*
X3931Y1019D02*
X3880Y869D01*
X3709Y1040D01*
X3859Y1091D01*
X3931Y1019D01*
D02*
G37*
G36*
X10746Y2069D02*
X10594D01*
X10549Y2199D01*
X10791D01*
X10746Y2069D01*
D02*
G37*
G36*
X8931Y966D02*
Y814D01*
X8801Y769D01*
Y1011D01*
X8931Y966D01*
D02*
G37*
D10*
X3700Y3140D02*
X3880Y2960D01*
X3700Y3140D02*
Y4050D01*
X3755Y4545D02*
X4810Y3490D01*
X2850Y3940D02*
X3455Y4545D01*
X3755D01*
X4810Y3260D02*
Y3490D01*
X2850Y3260D02*
Y3940D01*
D11*
X1850Y9430D02*
X2430D01*
X1090Y9610D02*
X1670D01*
X1850Y9430D01*
X2530Y9330D02*
X5110D01*
X2430Y9430D02*
X2530Y9330D01*
X5110D02*
X5290Y9510D01*
X2330Y9110D02*
X3610Y7830D01*
X2250Y9110D02*
X2330D01*
X750Y8750D02*
Y9270D01*
X1090Y9610D01*
D12*
X7380Y3760D02*
X7510Y3630D01*
X7380Y3760D02*
Y4550D01*
D13*
X6530Y6950D02*
X7470D01*
X7790Y7270D01*
X7255Y8352D02*
X7790Y7817D01*
Y7270D02*
Y7817D01*
X7750Y8983D02*
X8003Y8730D01*
X9380D01*
X9972Y9322D01*
X7750Y8983D02*
Y9190D01*
X10878Y9322D02*
X11250Y8950D01*
X9972Y9322D02*
X10878D01*
X3080Y7520D02*
X3810Y6790D01*
X3080Y7520D02*
Y7880D01*
X2650Y8310D02*
X3080Y7880D01*
X7250Y1410D02*
X7549Y1709D01*
X9379D02*
X9880Y2210D01*
X7549Y1709D02*
X9379D01*
X9690Y3390D02*
X9880Y3200D01*
Y2210D02*
Y3200D01*
X10130Y890D02*
X10670Y1430D01*
X8710Y890D02*
X10130D01*
X10670Y1430D02*
Y2290D01*
X1550Y8310D02*
X2650D01*
X6530Y7930D02*
X6730Y8130D01*
X6530Y7350D02*
Y7930D01*
D36*
Y5350D02*
Y5770D01*
X6810Y6050D01*
X7950D01*
X8610Y5390D01*
X9130D01*
X6480Y3190D02*
X8150D01*
X5060Y1770D02*
X6480Y3190D01*
X3630Y1770D02*
X5060D01*
X5660Y2010D02*
X5660D01*
X3390Y1550D02*
X5200D01*
X5660Y2010D01*
X6390Y2740D02*
X8460D01*
X5660Y2010D02*
X6390Y2740D01*
X8460D02*
X9130Y3410D01*
X3930Y1330D02*
X5010D01*
X3730Y890D02*
X3940Y1100D01*
X5730Y1670D02*
X6250D01*
X3940Y1100D02*
X5460D01*
X5730Y1370D01*
X6050Y1310D02*
X6390D01*
X3630Y1330D02*
X3930D01*
X5010D02*
X5390D01*
X5990Y1370D02*
X6050Y1310D01*
X5730Y1370D02*
X5990D01*
X5390Y1330D02*
X5730Y1670D01*
X3390Y1090D02*
X3630Y1330D01*
X2990Y1090D02*
X3390D01*
X2910Y1170D02*
Y1590D01*
X3250Y1410D02*
X3390Y1550D01*
X2910Y1590D02*
X3090Y1770D01*
X2910Y1170D02*
X2990Y1090D01*
X3090Y1770D02*
X3630D01*
X6390Y1310D02*
X7170Y2090D01*
X7770Y2370D02*
X7830Y2430D01*
X7170Y2090D02*
X7970D01*
X6510Y2370D02*
X7770D01*
X7830Y2430D02*
X8770D01*
X9130Y3410D02*
Y4290D01*
X8770Y2430D02*
X8950Y2250D01*
D49*
X5134Y3600D02*
X5431D01*
X4170Y4564D02*
Y5010D01*
Y4564D02*
X5134Y3600D01*
D52*
X11250Y8950D02*
D03*
X4934Y4493D02*
D03*
X6530Y5350D02*
D03*
X7380Y4550D02*
D03*
X6590Y6550D02*
D03*
X6530Y6950D02*
D03*
X7255Y8352D02*
D03*
X3700Y4050D02*
D03*
X3880Y2960D02*
D03*
X1700Y2250D02*
D03*
X1400D02*
D03*
X900Y1750D02*
D03*
X600D02*
D03*
X3610Y7830D02*
D03*
X2850Y3260D02*
D03*
X4810D02*
D03*
X9350Y6950D02*
D03*
X5290Y9510D02*
D03*
X7510Y3630D02*
D03*
X3810Y6790D02*
D03*
X1747Y2647D02*
D03*
X6930Y4950D02*
D03*
X5330D02*
D03*
X6530Y7350D02*
D03*
X5431Y3600D02*
D03*
X4170Y5010D02*
D03*
X2850Y7150D02*
D03*
X3730Y890D02*
D03*
X7970Y2090D02*
D03*
X9130Y4290D02*
D03*
Y5390D02*
D03*
X3250Y1410D02*
D03*
X2250Y9110D02*
D03*
X6250Y1670D02*
D03*
X8150Y3190D02*
D03*
X8950Y2250D02*
D03*
X6510Y2370D02*
D03*
X8710Y890D02*
D03*
X10670Y2290D02*
D03*
X1550Y8310D02*
D03*
X9690Y3390D02*
D03*
X7250Y1410D02*
D03*
X750Y8750D02*
D03*
X7750Y9190D02*
D03*
X6730Y8130D02*
D03*
M02*
