G04*
G04 #@! TF.GenerationSoftware,Altium Limited,Altium Designer,23.10.1 (27)*
G04*
G04 Layer_Physical_Order=2*
G04 Layer_Color=36540*
%FSLAX43Y43*%
%MOMM*%
G71*
G04*
G04 #@! TF.SameCoordinates,0D7B0408-4CF1-41DB-9FE2-DB35CB89E800*
G04*
G04*
G04 #@! TF.FilePolarity,Positive*
G04*
G01*
G75*
%ADD11C,0.127*%
%ADD13C,0.152*%
%ADD36C,0.102*%
%ADD52C,0.303*%
G36*
X9361Y9721D02*
X9119D01*
X9189Y9863D01*
X9291D01*
X9361Y9721D01*
D02*
G37*
G36*
X4826Y9669D02*
X4674D01*
X4629Y9799D01*
X4871D01*
X4826Y9669D01*
D02*
G37*
G36*
X5968Y9814D02*
X5963Y9655D01*
X5747Y9762D01*
X5850Y9840D01*
X5968Y9814D01*
D02*
G37*
G36*
X10771Y9600D02*
X10621Y9549D01*
X10549Y9621D01*
X10600Y9771D01*
X10771Y9600D01*
D02*
G37*
G36*
X6308Y9471D02*
X6207D01*
X6137Y9613D01*
X6378D01*
X6308Y9471D01*
D02*
G37*
G36*
X4484Y9980D02*
X4466Y9890D01*
X4488Y9781D01*
X4500Y9764D01*
X4499Y9755D01*
X4543Y9627D01*
Y9062D01*
X4450Y8969D01*
X4329Y8910D01*
X4322Y8903D01*
X4302Y8899D01*
X4210Y8837D01*
X4148Y8745D01*
X4127Y8637D01*
X4148Y8528D01*
X4210Y8436D01*
X4280Y8389D01*
X4229Y8312D01*
X4207Y8203D01*
X4229Y8095D01*
X4290Y8003D01*
X4382Y7941D01*
X4491Y7920D01*
X4507Y7923D01*
X4572Y7858D01*
X4566Y7830D01*
X4574Y7790D01*
X4512Y7714D01*
X4213D01*
X4108Y7818D01*
X4049Y7857D01*
X3980Y7871D01*
X2590D01*
X2555Y7864D01*
X2521Y7857D01*
X2521Y7857D01*
X2521Y7857D01*
X2491Y7838D01*
X2462Y7818D01*
X2255Y7611D01*
X1830D01*
X1830Y7611D01*
X1830Y7611D01*
X1797Y7605D01*
X1761Y7598D01*
X1760Y7598D01*
X1760Y7598D01*
X1729Y7577D01*
X1702Y7558D01*
X1702Y7558D01*
X1702Y7558D01*
X922Y6778D01*
X902Y6749D01*
X883Y6719D01*
X883Y6719D01*
X883Y6719D01*
X876Y6688D01*
X869Y6650D01*
Y5845D01*
X815Y5791D01*
X710D01*
X675Y5784D01*
X641Y5777D01*
X641Y5777D01*
X641Y5777D01*
X610Y5757D01*
X582Y5738D01*
X582Y5738D01*
X582Y5738D01*
X582Y5738D01*
X514Y5671D01*
X444Y5700D01*
Y7070D01*
X520Y7093D01*
X550Y7049D01*
X642Y6988D01*
X750Y6966D01*
X859Y6988D01*
X951Y7049D01*
X1012Y7141D01*
X1034Y7250D01*
X1012Y7359D01*
X951Y7451D01*
X934Y7462D01*
Y7538D01*
X951Y7549D01*
X1012Y7642D01*
X1034Y7750D01*
X1012Y7859D01*
X951Y7951D01*
X859Y8012D01*
X750Y8034D01*
X642Y8012D01*
X550Y7951D01*
X520Y7907D01*
X444Y7930D01*
Y10056D01*
X1970D01*
X1993Y9980D01*
X1949Y9951D01*
X1888Y9859D01*
X1866Y9750D01*
X1888Y9642D01*
X1949Y9550D01*
X2041Y9488D01*
X2150Y9466D01*
X2258Y9488D01*
X2324Y9531D01*
X2356Y9547D01*
X2419Y9515D01*
X2449Y9469D01*
X2541Y9408D01*
X2650Y9386D01*
X2759Y9408D01*
X2851Y9469D01*
X2912Y9562D01*
X2934Y9670D01*
X3007Y9677D01*
X3018Y9621D01*
X3079Y9529D01*
X3171Y9468D01*
X3280Y9446D01*
X3389Y9468D01*
X3481Y9529D01*
X3564Y9540D01*
X3642Y9488D01*
X3750Y9466D01*
X3859Y9488D01*
X3951Y9550D01*
X4012Y9642D01*
X4034Y9750D01*
X4012Y9859D01*
X3951Y9951D01*
X3907Y9980D01*
X3930Y10056D01*
X4442D01*
X4484Y9980D01*
D02*
G37*
G36*
X7633Y9338D02*
X7562Y9266D01*
X7431Y9300D01*
X7600Y9469D01*
X7633Y9338D01*
D02*
G37*
G36*
X8270Y9132D02*
X8119Y9081D01*
X8048Y9152D01*
X8099Y9303D01*
X8270Y9132D01*
D02*
G37*
G36*
X6931Y9121D02*
X6859Y9049D01*
X6709Y9100D01*
X6880Y9271D01*
X6931Y9121D01*
D02*
G37*
G36*
X4621Y8739D02*
X4560Y8615D01*
X4389Y8787D01*
X4513Y8847D01*
X4621Y8739D01*
D02*
G37*
G36*
X11801Y4750D02*
X11650D01*
Y2250D01*
X11801D01*
Y444D01*
X444D01*
Y4644D01*
X462Y4651D01*
X520Y4666D01*
X571Y4633D01*
X582Y4630D01*
X586Y4626D01*
X728Y4556D01*
X746Y4555D01*
X771Y4538D01*
X880Y4516D01*
X989Y4538D01*
X1081Y4599D01*
X1142Y4691D01*
X1164Y4800D01*
X1142Y4909D01*
X1081Y5001D01*
X1107Y5074D01*
X1152Y5141D01*
X1159Y5178D01*
X1172Y5193D01*
X1203Y5294D01*
X1279Y5282D01*
Y4409D01*
X964Y4095D01*
X829Y4049D01*
X816Y4037D01*
X786Y4031D01*
X694Y3970D01*
X633Y3878D01*
X611Y3769D01*
X633Y3661D01*
X679Y3592D01*
X689Y3557D01*
X664Y3498D01*
X608Y3461D01*
X547Y3369D01*
X525Y3260D01*
X547Y3151D01*
X608Y3059D01*
X700Y2998D01*
X809Y2976D01*
X918Y2998D01*
X935Y3009D01*
X951Y3010D01*
X1086Y3070D01*
X1149Y3083D01*
X1196Y3022D01*
X964Y2790D01*
X857Y2793D01*
X842Y2788D01*
X816Y2793D01*
X708Y2771D01*
X615Y2710D01*
X554Y2618D01*
X532Y2509D01*
X554Y2400D01*
X615Y2308D01*
X708Y2247D01*
X816Y2225D01*
X925Y2247D01*
X1017Y2308D01*
X1034Y2334D01*
X1049Y2341D01*
X1167Y2471D01*
X1172Y2486D01*
X1399Y2712D01*
X1469Y2675D01*
X1463Y2647D01*
X1485Y2538D01*
X1546Y2446D01*
X1638Y2385D01*
X1747Y2363D01*
X1855Y2385D01*
X1947Y2446D01*
X2009Y2538D01*
X2031Y2647D01*
X2009Y2755D01*
X1947Y2847D01*
X1855Y2909D01*
X1747Y2930D01*
X1699Y2921D01*
X1669Y2956D01*
X1649Y2988D01*
X1661Y3050D01*
Y3428D01*
X1995Y3762D01*
X2034Y3820D01*
X2048Y3890D01*
Y6191D01*
X2205Y6349D01*
X2355D01*
X2569Y6135D01*
Y6010D01*
X2583Y5941D01*
X2622Y5882D01*
X3427Y5076D01*
X3486Y5037D01*
X3556Y5023D01*
X3875D01*
X3886Y5010D01*
X3908Y4901D01*
X3969Y4809D01*
X4061Y4748D01*
X4170Y4726D01*
X4279Y4748D01*
X4371Y4809D01*
X4432Y4901D01*
X4454Y5010D01*
X4432Y5119D01*
X4371Y5211D01*
X4308Y5252D01*
X4290Y5341D01*
X4598Y5649D01*
X4721Y5589D01*
X4739Y5588D01*
X4764Y5571D01*
X4872Y5549D01*
X4981Y5571D01*
X5073Y5632D01*
X5134Y5725D01*
X5156Y5833D01*
X5134Y5942D01*
X5084Y6017D01*
X5141Y6069D01*
X5205Y6016D01*
X5215Y6013D01*
X5302Y5955D01*
X5410Y5933D01*
X5519Y5955D01*
X5611Y6016D01*
X5631D01*
X5637Y6006D01*
X5729Y5945D01*
X5838Y5923D01*
X5946Y5945D01*
X6039Y6006D01*
X6100Y6099D01*
X6122Y6207D01*
X6178Y6262D01*
X6258Y6278D01*
X6319Y6318D01*
X6389Y6350D01*
X6481Y6288D01*
X6590Y6267D01*
X6699Y6288D01*
X6791Y6350D01*
X6852Y6442D01*
X6874Y6550D01*
X6852Y6659D01*
X6791Y6751D01*
X6750Y6778D01*
X6792Y6841D01*
X6814Y6950D01*
X6792Y7059D01*
X6790Y7063D01*
X6796Y7076D01*
X6840Y7124D01*
X6930Y7106D01*
X7039Y7128D01*
X7131Y7189D01*
X7131Y7190D01*
X7230Y7202D01*
X7281Y7168D01*
X7390Y7146D01*
X7499Y7168D01*
X7591Y7229D01*
X7652Y7321D01*
X7674Y7430D01*
X7652Y7539D01*
X7591Y7631D01*
X7499Y7692D01*
X7390Y7714D01*
X7281Y7692D01*
X7189Y7631D01*
X7189Y7630D01*
X7090Y7618D01*
X7039Y7652D01*
X6930Y7674D01*
X6821Y7652D01*
X6729Y7591D01*
X6711Y7564D01*
X6638Y7612D01*
X6530Y7634D01*
X6421Y7612D01*
X6409Y7604D01*
X6396Y7603D01*
X6317Y7634D01*
X6270Y7727D01*
Y8874D01*
X6386Y8989D01*
X6425Y9048D01*
X6428Y9064D01*
X6509Y9080D01*
X6529Y9049D01*
X6621Y8988D01*
X6651Y8982D01*
X6665Y8970D01*
X6799Y8924D01*
X6832Y8892D01*
X6891Y8852D01*
X6960Y8839D01*
X7987D01*
X8056Y8852D01*
X8115Y8892D01*
X8179Y8956D01*
X8314Y9002D01*
X8328Y9014D01*
X8357Y9019D01*
X8449Y9081D01*
X8479Y9125D01*
X8575Y9136D01*
X8591Y9120D01*
X8620Y9101D01*
X8649Y9081D01*
X8649Y9081D01*
X8650Y9081D01*
X8684Y9074D01*
X8719Y9068D01*
X9810D01*
X9879Y9081D01*
X9938Y9121D01*
X9996Y9071D01*
X9988Y9059D01*
X9966Y8950D01*
X9988Y8841D01*
X10049Y8749D01*
X10141Y8688D01*
X10250Y8666D01*
X10359Y8688D01*
X10414Y8725D01*
X10498Y8693D01*
X10508Y8642D01*
X10569Y8550D01*
X10661Y8488D01*
X10770Y8466D01*
X10878Y8488D01*
X10971Y8550D01*
X11032Y8642D01*
X11054Y8750D01*
X11032Y8859D01*
X10971Y8951D01*
X10878Y9012D01*
X10770Y9034D01*
X10661Y9012D01*
X10606Y8975D01*
X10522Y9007D01*
X10512Y9059D01*
X10451Y9151D01*
X10359Y9212D01*
X10250Y9234D01*
X10141Y9212D01*
X10129Y9204D01*
X10080Y9263D01*
X10136Y9318D01*
X10499D01*
X10569Y9332D01*
X10628Y9371D01*
X10681Y9424D01*
X10816Y9470D01*
X10829Y9482D01*
X10859Y9488D01*
X10951Y9550D01*
X11012Y9642D01*
X11034Y9750D01*
X11012Y9859D01*
X10951Y9951D01*
X10907Y9980D01*
X10930Y10056D01*
X11801D01*
Y4750D01*
D02*
G37*
G36*
X6210Y7539D02*
X5968D01*
X6038Y7681D01*
X6140D01*
X6210Y7539D01*
D02*
G37*
G36*
X6134Y7191D02*
X5997Y6992D01*
X5925Y7121D01*
X5974Y7216D01*
X6134Y7191D01*
D02*
G37*
G36*
X3340Y6188D02*
X3244Y6245D01*
Y6347D01*
X3316Y6421D01*
X3340Y6188D01*
D02*
G37*
G36*
X5293Y6122D02*
X5168Y6224D01*
X5214Y6325D01*
X5351Y6356D01*
X5293Y6122D01*
D02*
G37*
G36*
X3584Y5818D02*
X3440Y5879D01*
X3429Y5981D01*
X3569Y6060D01*
X3584Y5818D01*
D02*
G37*
G36*
X4781Y5712D02*
X4639Y5782D01*
Y5884D01*
X4781Y5954D01*
Y5712D01*
D02*
G37*
G36*
X1087Y5386D02*
X1040Y5233D01*
X864Y5399D01*
X1012Y5454D01*
X1087Y5386D01*
D02*
G37*
G36*
X789Y4679D02*
X647Y4749D01*
Y4851D01*
X789Y4921D01*
Y4679D01*
D02*
G37*
G36*
X1096Y3898D02*
X1045Y3748D01*
X874Y3919D01*
X1024Y3970D01*
X1096Y3898D01*
D02*
G37*
G36*
X1045Y3301D02*
X1038Y3199D01*
X895Y3135D01*
X905Y3377D01*
X1045Y3301D01*
D02*
G37*
G36*
X1010Y2651D02*
X1065Y2563D01*
X947Y2433D01*
X853Y2656D01*
X1010Y2651D01*
D02*
G37*
%LPC*%
G36*
X8255Y8508D02*
X8146Y8487D01*
X8054Y8425D01*
X7993Y8333D01*
X7971Y8225D01*
X7993Y8116D01*
X8054Y8024D01*
X8146Y7963D01*
X8255Y7941D01*
X8363Y7963D01*
X8456Y8024D01*
X8479Y8059D01*
X8485Y8061D01*
X8567Y8054D01*
X8609Y7989D01*
X8575Y7921D01*
X8555Y7891D01*
X8471Y7856D01*
X8420Y7866D01*
X8312Y7845D01*
X8220Y7783D01*
X8158Y7691D01*
X8152Y7662D01*
X8140Y7648D01*
X8095Y7513D01*
X8044Y7463D01*
X8005Y7404D01*
X7991Y7335D01*
Y7118D01*
X8005Y7048D01*
X8044Y6990D01*
X8410Y6624D01*
X8405Y6617D01*
X8401Y6593D01*
X8378Y6559D01*
X8356Y6450D01*
X8378Y6341D01*
X8439Y6249D01*
X8531Y6188D01*
X8640Y6166D01*
X8749Y6188D01*
X8841Y6249D01*
X8902Y6341D01*
X8924Y6450D01*
X8902Y6559D01*
X8879Y6593D01*
X8875Y6617D01*
X8807Y6724D01*
X8802Y6727D01*
X8768Y6779D01*
X8676Y6871D01*
X8687Y6968D01*
X8730Y6996D01*
X8791Y7088D01*
X8813Y7197D01*
X8791Y7306D01*
X8730Y7398D01*
X8717Y7406D01*
X8722Y7455D01*
X8795Y7503D01*
X8817Y7499D01*
X8926Y7521D01*
X9018Y7582D01*
X9080Y7674D01*
X9101Y7783D01*
X9080Y7891D01*
X9018Y7983D01*
X9052Y8052D01*
X9072Y8081D01*
X9094Y8190D01*
X9072Y8299D01*
X9011Y8391D01*
X8919Y8452D01*
X8810Y8474D01*
X8701Y8452D01*
X8609Y8391D01*
X8586Y8356D01*
X8580Y8354D01*
X8498Y8361D01*
X8456Y8425D01*
X8363Y8487D01*
X8255Y8508D01*
D02*
G37*
G36*
X9350Y7234D02*
X9241Y7212D01*
X9149Y7151D01*
X9088Y7059D01*
X9066Y6950D01*
X9088Y6841D01*
X9149Y6749D01*
X9241Y6688D01*
X9350Y6666D01*
X9458Y6688D01*
X9550Y6749D01*
X9612Y6841D01*
X9634Y6950D01*
X9612Y7059D01*
X9550Y7151D01*
X9458Y7212D01*
X9350Y7234D01*
D02*
G37*
G36*
X9338Y6333D02*
X9230Y6311D01*
X9138Y6250D01*
X9076Y6158D01*
X9071Y6132D01*
X9061Y6122D01*
X9009Y5994D01*
X8893Y5878D01*
X8851Y5815D01*
X8836Y5741D01*
Y4710D01*
X7843Y3717D01*
X7835Y3719D01*
X7766Y3748D01*
X7711Y3831D01*
X7619Y3892D01*
X7510Y3914D01*
X7402Y3892D01*
X7309Y3831D01*
X7270Y3772D01*
X7180Y3755D01*
X6774Y4161D01*
Y4190D01*
X6837Y4305D01*
X6839Y4322D01*
X6870Y4368D01*
X6891Y4476D01*
X6870Y4585D01*
X6857Y4603D01*
X6903Y4672D01*
X6930Y4666D01*
X7039Y4688D01*
X7054Y4698D01*
X7091Y4675D01*
X7116Y4648D01*
X7096Y4550D01*
X7118Y4442D01*
X7179Y4350D01*
X7271Y4288D01*
X7380Y4267D01*
X7489Y4288D01*
X7581Y4350D01*
X7642Y4442D01*
X7664Y4550D01*
X7642Y4659D01*
X7581Y4751D01*
X7489Y4812D01*
X7380Y4834D01*
X7271Y4812D01*
X7256Y4802D01*
X7218Y4825D01*
X7194Y4852D01*
X7214Y4950D01*
X7192Y5059D01*
X7131Y5150D01*
X7192Y5241D01*
X7214Y5350D01*
X7200Y5418D01*
X7262Y5480D01*
X7330Y5466D01*
X7439Y5488D01*
X7530Y5549D01*
X7621Y5488D01*
X7730Y5466D01*
X7839Y5488D01*
X7931Y5549D01*
X7992Y5642D01*
X8014Y5750D01*
X7992Y5859D01*
X7931Y5951D01*
X7839Y6012D01*
X7730Y6034D01*
X7621Y6012D01*
X7530Y5951D01*
X7439Y6012D01*
X7330Y6034D01*
X7221Y6012D01*
X7130Y5951D01*
X7039Y6012D01*
X6930Y6034D01*
X6821Y6012D01*
X6729Y5951D01*
X6668Y5859D01*
X6646Y5750D01*
X6660Y5682D01*
X6598Y5620D01*
X6530Y5634D01*
X6421Y5612D01*
X6358Y5570D01*
X6334Y5605D01*
X6242Y5666D01*
X6134Y5688D01*
X6025Y5666D01*
X5933Y5605D01*
X5894Y5546D01*
X5843Y5580D01*
X5735Y5602D01*
X5626Y5580D01*
X5534Y5518D01*
X5473Y5426D01*
X5451Y5318D01*
X5458Y5284D01*
X5393Y5221D01*
X5330Y5234D01*
X5221Y5212D01*
X5129Y5151D01*
X5068Y5059D01*
X5046Y4950D01*
X5068Y4841D01*
X5083Y4819D01*
X5058Y4779D01*
X5033Y4757D01*
X4934Y4777D01*
X4825Y4755D01*
X4733Y4694D01*
X4672Y4602D01*
X4650Y4493D01*
X4672Y4385D01*
X4733Y4293D01*
X4825Y4231D01*
X4934Y4209D01*
X5043Y4231D01*
X5135Y4293D01*
X5196Y4385D01*
X5218Y4493D01*
X5196Y4602D01*
X5181Y4624D01*
X5206Y4664D01*
X5231Y4686D01*
X5330Y4666D01*
X5439Y4688D01*
X5531Y4749D01*
X5592Y4841D01*
X5614Y4950D01*
X5607Y4984D01*
X5672Y5047D01*
X5675Y5046D01*
X5691Y5034D01*
X5824Y5000D01*
X5946Y4878D01*
Y3801D01*
X5956Y3748D01*
X5955Y3744D01*
X5973Y3632D01*
X5988Y3608D01*
X5997Y3561D01*
X6052Y3479D01*
X6041Y3438D01*
X6021Y3403D01*
X5714D01*
X5678Y3470D01*
X5693Y3491D01*
X5714Y3600D01*
X5693Y3709D01*
X5631Y3801D01*
X5539Y3862D01*
X5431Y3884D01*
X5322Y3862D01*
X5230Y3801D01*
X5168Y3709D01*
X5147Y3600D01*
X5168Y3491D01*
X5183Y3470D01*
X5147Y3403D01*
X3435D01*
X3338Y3362D01*
X3298Y3265D01*
Y2635D01*
X3338Y2538D01*
X3435Y2497D01*
X6665D01*
X6762Y2538D01*
X6803Y2635D01*
Y3265D01*
X6762Y3362D01*
X6665Y3403D01*
X6498D01*
X6478Y3438D01*
X6466Y3479D01*
X6521Y3561D01*
X6543Y3669D01*
X6527Y3751D01*
X6597Y3789D01*
X7253Y3133D01*
X7316Y3091D01*
X7390Y3076D01*
X7670D01*
X7744Y3091D01*
X7807Y3133D01*
X9167Y4493D01*
X9209Y4556D01*
X9224Y4630D01*
Y5661D01*
X9283Y5720D01*
X9412Y5772D01*
X9421Y5782D01*
X9447Y5787D01*
X9539Y5848D01*
X9600Y5940D01*
X9622Y6049D01*
X9600Y6158D01*
X9539Y6250D01*
X9447Y6311D01*
X9338Y6333D01*
D02*
G37*
%LPD*%
G36*
X8442Y7433D02*
X8291Y7382D01*
X8219Y7453D01*
X8271Y7604D01*
X8442Y7433D01*
D02*
G37*
G36*
X8759Y6543D02*
X8521D01*
X8589Y6650D01*
X8691D01*
X8759Y6543D01*
D02*
G37*
G36*
X9359Y5899D02*
X9222Y5843D01*
X9132Y5933D01*
X9188Y6070D01*
X9359Y5899D01*
D02*
G37*
G36*
X5943Y5208D02*
X5881Y5127D01*
X5726Y5167D01*
X5882Y5351D01*
X5943Y5208D01*
D02*
G37*
G36*
X6717Y4372D02*
X6643Y4238D01*
X6516Y4265D01*
X6477Y4400D01*
X6717Y4372D01*
D02*
G37*
G36*
X6275Y3820D02*
X6109Y3653D01*
X6091Y3765D01*
X6163Y3837D01*
X6275Y3820D01*
D02*
G37*
G36*
X6665Y2635D02*
X3435D01*
Y3265D01*
X6665D01*
Y2635D01*
D02*
G37*
D11*
X6579Y4456D02*
X6599Y4476D01*
X6608D01*
X6579Y4081D02*
Y4456D01*
Y4081D02*
X7390Y3270D01*
X7670D02*
X9030Y4630D01*
X7390Y3270D02*
X7670D01*
X9030Y5741D02*
X9338Y6049D01*
X9030Y4630D02*
Y5741D01*
D13*
X4750Y8977D02*
Y9890D01*
X4410Y8637D02*
X4750Y8977D01*
D36*
X10499Y9499D02*
X10750Y9750D01*
X10061Y9499D02*
X10499D01*
X9810Y9249D02*
X10061Y9499D01*
X4526Y5833D02*
X4872D01*
X3896Y5204D02*
X4526Y5833D01*
X4965Y6275D02*
X5353D01*
X4150Y7090D02*
X4965Y6275D01*
X5353D02*
X5410Y6217D01*
X3405Y6296D02*
X3424Y6314D01*
X3244Y6296D02*
X3405D01*
X3150Y6390D02*
X3244Y6296D01*
X6127Y3801D02*
X6259Y3669D01*
X6127Y3801D02*
Y4953D01*
X5762Y5318D02*
X6127Y4953D01*
X3556Y5204D02*
X3896D01*
X2750Y6010D02*
X3556Y5204D01*
X3318Y5930D02*
X3652D01*
X3667Y5945D01*
X8172Y7335D02*
X8420Y7582D01*
X8172Y7118D02*
Y7335D01*
X6960Y9020D02*
X7987D01*
X8248Y9281D01*
X8338Y9629D02*
X8719Y9249D01*
X7845Y9302D02*
X8172Y9629D01*
X8338D01*
X5586Y7532D02*
X6078Y7040D01*
X4138Y7532D02*
X5586D01*
X6078Y7040D02*
X6140D01*
X819Y3250D02*
X1080D01*
X809Y3260D02*
X819Y3250D01*
X1080D02*
X1230Y3400D01*
X939Y2509D02*
X1480Y3050D01*
X816Y2509D02*
X939D01*
X1460Y4334D02*
Y5380D01*
X895Y3769D02*
X1460Y4334D01*
X1230Y3683D02*
X1663Y4116D01*
X1230Y3400D02*
Y3683D01*
X1480Y3503D02*
X1866Y3890D01*
X1480Y3050D02*
Y3503D01*
X3980Y7690D02*
X4138Y7532D01*
X6117Y10034D02*
X9126D01*
X5815Y9732D02*
X6117Y10034D01*
X5815Y9627D02*
Y9732D01*
X6258Y9117D02*
Y9704D01*
X6089Y8949D02*
X6258Y9117D01*
X6089Y7448D02*
Y8949D01*
X9126Y10034D02*
X9240Y9920D01*
X7598Y9302D02*
X7845D01*
X7450Y9450D02*
X7598Y9302D01*
X8719Y9249D02*
X9810D01*
X9240Y9630D02*
Y9920D01*
X5735Y5318D02*
X5762D01*
X8640Y6450D02*
Y6650D01*
X8172Y7118D02*
X8640Y6650D01*
X530Y4910D02*
X640Y4800D01*
X530Y4910D02*
Y5430D01*
X640Y4800D02*
X880D01*
X1866Y3890D02*
Y6266D01*
X1663Y4116D02*
Y6363D01*
X2047Y6747D01*
X2501D01*
X3318Y5930D01*
X1460Y5380D02*
Y6450D01*
X1960Y6950D01*
X2585D01*
X2714Y6821D01*
X2719D01*
X3150Y6390D01*
X710Y5610D02*
X890D01*
X1050Y5770D01*
Y6650D01*
X530Y5430D02*
X710Y5610D01*
X6730Y9250D02*
X6960Y9020D01*
X2590Y7690D02*
X3980D01*
X1050Y6650D02*
X1830Y7430D01*
X2330D01*
X2590Y7690D01*
X2430Y6530D02*
X2750Y6211D01*
Y6010D02*
Y6211D01*
X1866Y6266D02*
X2130Y6530D01*
X2430D01*
X3610Y7090D02*
X4150D01*
X3230Y7470D02*
X3610Y7090D01*
X2353Y7153D02*
X2670Y7470D01*
X3230D01*
X1257Y6534D02*
X1876Y7153D01*
X1257Y5627D02*
Y6534D01*
X1876Y7153D02*
X2353D01*
X879Y5250D02*
X890D01*
X879D02*
X1257Y5627D01*
D52*
X1466Y9168D02*
D03*
X10750Y9750D02*
D03*
X750D02*
D03*
X5303Y5816D02*
D03*
X4872Y5833D02*
D03*
X6608Y4476D02*
D03*
X3424Y6314D02*
D03*
X6259Y3669D02*
D03*
X3667Y5945D02*
D03*
X7009Y4346D02*
D03*
X8420Y7582D02*
D03*
X8248Y9281D02*
D03*
X5410Y6217D02*
D03*
X4410Y8637D02*
D03*
X7350Y4950D02*
D03*
X6140Y7040D02*
D03*
X809Y3260D02*
D03*
X816Y2509D02*
D03*
X895Y3769D02*
D03*
X6258Y9704D02*
D03*
X5815Y9627D02*
D03*
X9240Y9630D02*
D03*
X6089Y7448D02*
D03*
X5735Y5318D02*
D03*
X5730Y4896D02*
D03*
X8640Y6450D02*
D03*
X880Y4800D02*
D03*
X1550Y7770D02*
D03*
X890Y5250D02*
D03*
X9338Y6049D02*
D03*
X4750Y9890D02*
D03*
X11750Y9750D02*
D03*
X1750Y750D02*
D03*
X11750D02*
D03*
X2250Y6150D02*
D03*
X2150Y7950D02*
D03*
X750Y750D02*
D03*
X1450Y1450D02*
D03*
X5850Y1050D02*
D03*
X8170Y6530D02*
D03*
X6730Y9250D02*
D03*
X7450Y9450D02*
D03*
X3610Y2810D02*
D03*
X3890D02*
D03*
Y3090D02*
D03*
X3610D02*
D03*
X6010Y2810D02*
D03*
X6490D02*
D03*
Y3090D02*
D03*
X6010D02*
D03*
X6530Y6150D02*
D03*
X4930Y4950D02*
D03*
X7730Y5350D02*
D03*
X4050Y1150D02*
D03*
X9350Y5250D02*
D03*
X2250Y4650D02*
D03*
X710Y6250D02*
D03*
X10350Y6050D02*
D03*
Y6950D02*
D03*
X10150Y1250D02*
D03*
X11150Y2150D02*
D03*
X11650Y6050D02*
D03*
Y6750D02*
D03*
X11750Y8950D02*
D03*
X10150Y5250D02*
D03*
X10350Y7850D02*
D03*
X7050Y2050D02*
D03*
X1350Y1950D02*
D03*
X2150D02*
D03*
X3750D02*
D03*
M02*
