G04*
G04 #@! TF.GenerationSoftware,Altium Limited,Altium Designer,23.10.1 (27)*
G04*
G04 Layer_Color=8388736*
%FSLAX43Y43*%
%MOMM*%
G71*
G04*
G04 #@! TF.SameCoordinates,0D7B0408-4CF1-41DB-9FE2-DB35CB89E800*
G04*
G04*
G04 #@! TF.FilePolarity,Negative*
G04*
G01*
G75*
%ADD14C,0.500*%
%ADD25C,0.254*%
G04:AMPARAMS|DCode=26|XSize=0.266mm|YSize=0.276mm|CornerRadius=0.133mm|HoleSize=0mm|Usage=FLASHONLY|Rotation=90.000|XOffset=0mm|YOffset=0mm|HoleType=Round|Shape=RoundedRectangle|*
%AMROUNDEDRECTD26*
21,1,0.266,0.010,0,0,90.0*
21,1,0.000,0.276,0,0,90.0*
1,1,0.266,0.005,0.000*
1,1,0.266,0.005,0.000*
1,1,0.266,-0.005,0.000*
1,1,0.266,-0.005,0.000*
%
%ADD26ROUNDEDRECTD26*%
G04:AMPARAMS|DCode=27|XSize=0.276mm|YSize=0.266mm|CornerRadius=0.133mm|HoleSize=0mm|Usage=FLASHONLY|Rotation=90.000|XOffset=0mm|YOffset=0mm|HoleType=Round|Shape=RoundedRectangle|*
%AMROUNDEDRECTD27*
21,1,0.276,0.000,0,0,90.0*
21,1,0.010,0.266,0,0,90.0*
1,1,0.266,0.000,0.005*
1,1,0.266,0.000,-0.005*
1,1,0.266,0.000,-0.005*
1,1,0.266,0.000,0.005*
%
%ADD27ROUNDEDRECTD27*%
G04:AMPARAMS|DCode=28|XSize=0.276mm|YSize=0.276mm|CornerRadius=0.138mm|HoleSize=0mm|Usage=FLASHONLY|Rotation=90.000|XOffset=0mm|YOffset=0mm|HoleType=Round|Shape=RoundedRectangle|*
%AMROUNDEDRECTD28*
21,1,0.276,0.000,0,0,90.0*
21,1,0.000,0.276,0,0,90.0*
1,1,0.276,0.000,0.000*
1,1,0.276,0.000,0.000*
1,1,0.276,0.000,0.000*
1,1,0.276,0.000,0.000*
%
%ADD28ROUNDEDRECTD28*%
%ADD29R,0.801X0.751*%
%ADD30R,0.651X0.651*%
%ADD31R,0.651X0.651*%
%ADD32R,1.851X0.851*%
%ADD33R,0.851X1.851*%
%ADD34R,1.551X1.051*%
G04:AMPARAMS|DCode=35|XSize=0.451mm|YSize=0.451mm|CornerRadius=0.225mm|HoleSize=0mm|Usage=FLASHONLY|Rotation=0.000|XOffset=0mm|YOffset=0mm|HoleType=Round|Shape=RoundedRectangle|*
%AMROUNDEDRECTD35*
21,1,0.451,0.000,0,0,0.0*
21,1,0.000,0.451,0,0,0.0*
1,1,0.451,0.000,0.000*
1,1,0.451,0.000,0.000*
1,1,0.451,0.000,0.000*
1,1,0.451,0.000,0.000*
%
%ADD35ROUNDEDRECTD35*%
D14*
X12050Y9050D02*
Y9850D01*
X11350D02*
X12050D01*
X11050Y650D02*
X12050D01*
X650Y9850D02*
X1650D01*
X650Y650D02*
X1445D01*
X650Y9050D02*
Y9850D01*
Y650D02*
Y1050D01*
D25*
X2591Y1000D02*
G03*
X2591Y1000I-91J0D01*
G01*
D26*
X4530Y4950D02*
D03*
Y5350D02*
D03*
Y5750D02*
D03*
Y6150D02*
D03*
Y6550D02*
D03*
Y6950D02*
D03*
Y7350D02*
D03*
Y7750D02*
D03*
X7730Y8150D02*
D03*
X7330D02*
D03*
X6930D02*
D03*
X6530D02*
D03*
X7730Y7750D02*
D03*
X7330D02*
D03*
X6930D02*
D03*
X6530D02*
D03*
X7730Y7350D02*
D03*
X7330D02*
D03*
X7730Y6950D02*
D03*
X7330D02*
D03*
X4930Y5350D02*
D03*
X5330D02*
D03*
X4930Y5750D02*
D03*
X5330D02*
D03*
D27*
X7730Y8950D02*
D03*
X7330D02*
D03*
X6930D02*
D03*
X6530D02*
D03*
X6130D02*
D03*
X5730D02*
D03*
X5330D02*
D03*
X4930D02*
D03*
X4530D02*
D03*
X7730Y8550D02*
D03*
X7330D02*
D03*
X6930D02*
D03*
X6530D02*
D03*
X6130D02*
D03*
X5730D02*
D03*
X5330D02*
D03*
X4930D02*
D03*
X4530D02*
D03*
X6130Y4550D02*
D03*
X6530D02*
D03*
X4930Y7750D02*
D03*
X5330D02*
D03*
X4930Y8150D02*
D03*
X5330D02*
D03*
X5730D02*
D03*
X6130D02*
D03*
D28*
X4530Y4550D02*
D03*
X4930D02*
D03*
X5330D02*
D03*
X5730D02*
D03*
X6930D02*
D03*
X7330D02*
D03*
X7730D02*
D03*
X4930Y4950D02*
D03*
X5330D02*
D03*
X5730D02*
D03*
X6130D02*
D03*
X6530D02*
D03*
X6930D02*
D03*
X7330D02*
D03*
X7730D02*
D03*
X5730Y5350D02*
D03*
X6130D02*
D03*
X6530D02*
D03*
X6930D02*
D03*
X7330D02*
D03*
X7730D02*
D03*
X5730Y5750D02*
D03*
X6130D02*
D03*
X6530D02*
D03*
X6930D02*
D03*
X7330D02*
D03*
X7730D02*
D03*
X4930Y6150D02*
D03*
X5330D02*
D03*
X5730D02*
D03*
X6530D02*
D03*
X6930D02*
D03*
X7330D02*
D03*
X7730D02*
D03*
X4930Y6550D02*
D03*
X5330D02*
D03*
X5730D02*
D03*
X6530D02*
D03*
X6930D02*
D03*
X7330D02*
D03*
X7730D02*
D03*
X4930Y6950D02*
D03*
X5330D02*
D03*
X5730D02*
D03*
X6530D02*
D03*
X6930D02*
D03*
X4930Y7350D02*
D03*
X5330D02*
D03*
X5730D02*
D03*
X6530D02*
D03*
X6930D02*
D03*
X5730Y7750D02*
D03*
X6130D02*
D03*
X4530Y8150D02*
D03*
D29*
X9425Y3050D02*
D03*
X8075D02*
D03*
Y2050D02*
D03*
X9425D02*
D03*
D30*
X10150Y5250D02*
D03*
X11150D02*
D03*
X10150Y4250D02*
D03*
X11150D02*
D03*
X11550Y8250D02*
D03*
X12550D02*
D03*
X9338Y6049D02*
D03*
X10338D02*
D03*
X9150Y1150D02*
D03*
X8150D02*
D03*
X9350Y6950D02*
D03*
X10350D02*
D03*
X2850Y7150D02*
D03*
X1850D02*
D03*
X9350Y7850D02*
D03*
X10350D02*
D03*
X6850Y1150D02*
D03*
X5850D02*
D03*
X5050D02*
D03*
X4050D02*
D03*
X2850Y6350D02*
D03*
X1850D02*
D03*
X2850Y7950D02*
D03*
X1850D02*
D03*
D31*
X2950Y1950D02*
D03*
Y2950D02*
D03*
X10350Y2050D02*
D03*
Y3050D02*
D03*
X1350Y2950D02*
D03*
Y1950D02*
D03*
X2150Y2950D02*
D03*
Y1950D02*
D03*
X7050Y3050D02*
D03*
Y2050D02*
D03*
X3750Y2950D02*
D03*
Y1950D02*
D03*
X9371Y5273D02*
D03*
Y4273D02*
D03*
D32*
X2250Y3850D02*
D03*
Y5450D02*
D03*
D33*
X4650Y2550D02*
D03*
X6250D02*
D03*
D34*
X13750Y9000D02*
D03*
Y1500D02*
D03*
D35*
X10200Y9500D02*
D03*
X2500Y1000D02*
D03*
M02*
