G04*
G04 #@! TF.GenerationSoftware,Altium Limited,Altium Designer,23.10.1 (27)*
G04*
G04 Layer_Color=8421504*
%FSLAX43Y43*%
%MOMM*%
G71*
G04*
G04 #@! TF.SameCoordinates,795BF10B-043E-4606-9F91-99BFBDA2EA10*
G04*
G04*
G04 #@! TF.FilePolarity,Positive*
G04*
G01*
G75*
%ADD14C,0.500*%
G04:AMPARAMS|DCode=15|XSize=0.4mm|YSize=0.4mm|CornerRadius=0.2mm|HoleSize=0mm|Usage=FLASHONLY|Rotation=0.000|XOffset=0mm|YOffset=0mm|HoleType=Round|Shape=RoundedRectangle|*
%AMROUNDEDRECTD15*
21,1,0.400,0.000,0,0,0.0*
21,1,0.000,0.400,0,0,0.0*
1,1,0.400,0.000,0.000*
1,1,0.400,0.000,0.000*
1,1,0.400,0.000,0.000*
1,1,0.400,0.000,0.000*
%
%ADD15ROUNDEDRECTD15*%
%ADD16R,0.750X0.700*%
G04:AMPARAMS|DCode=17|XSize=0.2mm|YSize=0.19mm|CornerRadius=0.095mm|HoleSize=0mm|Usage=FLASHONLY|Rotation=90.000|XOffset=0mm|YOffset=0mm|HoleType=Round|Shape=RoundedRectangle|*
%AMROUNDEDRECTD17*
21,1,0.200,0.000,0,0,90.0*
21,1,0.010,0.190,0,0,90.0*
1,1,0.190,0.000,0.005*
1,1,0.190,0.000,-0.005*
1,1,0.190,0.000,-0.005*
1,1,0.190,0.000,0.005*
%
%ADD17ROUNDEDRECTD17*%
G04:AMPARAMS|DCode=18|XSize=0.2mm|YSize=0.2mm|CornerRadius=0.1mm|HoleSize=0mm|Usage=FLASHONLY|Rotation=90.000|XOffset=0mm|YOffset=0mm|HoleType=Round|Shape=RoundedRectangle|*
%AMROUNDEDRECTD18*
21,1,0.200,0.000,0,0,90.0*
21,1,0.000,0.200,0,0,90.0*
1,1,0.200,0.000,0.000*
1,1,0.200,0.000,0.000*
1,1,0.200,0.000,0.000*
1,1,0.200,0.000,0.000*
%
%ADD18ROUNDEDRECTD18*%
G04:AMPARAMS|DCode=19|XSize=0.19mm|YSize=0.2mm|CornerRadius=0.095mm|HoleSize=0mm|Usage=FLASHONLY|Rotation=90.000|XOffset=0mm|YOffset=0mm|HoleType=Round|Shape=RoundedRectangle|*
%AMROUNDEDRECTD19*
21,1,0.190,0.010,0,0,90.0*
21,1,0.000,0.200,0,0,90.0*
1,1,0.190,0.005,0.000*
1,1,0.190,0.005,0.000*
1,1,0.190,-0.005,0.000*
1,1,0.190,-0.005,0.000*
%
%ADD19ROUNDEDRECTD19*%
%ADD20R,1.500X1.000*%
%ADD21R,0.800X1.800*%
%ADD22R,0.600X0.600*%
%ADD23R,0.600X0.600*%
%ADD24R,1.800X0.800*%
D14*
X12050Y9050D02*
Y9850D01*
X11350D02*
X12050D01*
X11050Y650D02*
X12050D01*
X650Y9850D02*
X1650D01*
X650Y650D02*
X1450D01*
X650Y9050D02*
Y9850D01*
Y650D02*
Y1050D01*
D15*
X10200Y9500D02*
D03*
X2500Y1000D02*
D03*
D16*
X9425Y3050D02*
D03*
X8075D02*
D03*
Y2050D02*
D03*
X9425D02*
D03*
D17*
X6130Y8150D02*
D03*
X5730D02*
D03*
X5330D02*
D03*
X4930D02*
D03*
X5330Y7750D02*
D03*
X4930D02*
D03*
X6530Y4550D02*
D03*
X6130D02*
D03*
X4530Y8550D02*
D03*
X4930D02*
D03*
X5330D02*
D03*
X5730D02*
D03*
X6130D02*
D03*
X6530D02*
D03*
X6930D02*
D03*
X7330D02*
D03*
X7730D02*
D03*
X4530Y8950D02*
D03*
X4930D02*
D03*
X5330D02*
D03*
X5730D02*
D03*
X6130D02*
D03*
X6530D02*
D03*
X6930D02*
D03*
X7330D02*
D03*
X7730D02*
D03*
D18*
X4530Y8150D02*
D03*
X6130Y7750D02*
D03*
X5730D02*
D03*
X6930Y7350D02*
D03*
X6530D02*
D03*
X5730D02*
D03*
X5330D02*
D03*
X4930D02*
D03*
X6930Y6950D02*
D03*
X6530D02*
D03*
X5730D02*
D03*
X5330D02*
D03*
X4930D02*
D03*
X7730Y6550D02*
D03*
X7330D02*
D03*
X6930D02*
D03*
X6530D02*
D03*
X5730D02*
D03*
X5330D02*
D03*
X4930D02*
D03*
X7730Y6150D02*
D03*
X7330D02*
D03*
X6930D02*
D03*
X6530D02*
D03*
X5730D02*
D03*
X5330D02*
D03*
X4930D02*
D03*
X7730Y5750D02*
D03*
X7330D02*
D03*
X6930D02*
D03*
X6530D02*
D03*
X6130D02*
D03*
X5730D02*
D03*
X7730Y5350D02*
D03*
X7330D02*
D03*
X6930D02*
D03*
X6530D02*
D03*
X6130D02*
D03*
X5730D02*
D03*
X7730Y4950D02*
D03*
X7330D02*
D03*
X6930D02*
D03*
X6530D02*
D03*
X6130D02*
D03*
X5730D02*
D03*
X5330D02*
D03*
X4930D02*
D03*
X7730Y4550D02*
D03*
X7330D02*
D03*
X6930D02*
D03*
X5730D02*
D03*
X5330D02*
D03*
X4930D02*
D03*
X4530D02*
D03*
D19*
X5330Y5750D02*
D03*
X4930D02*
D03*
X5330Y5350D02*
D03*
X4930D02*
D03*
X7330Y6950D02*
D03*
X7730D02*
D03*
X7330Y7350D02*
D03*
X7730D02*
D03*
X6530Y7750D02*
D03*
X6930D02*
D03*
X7330D02*
D03*
X7730D02*
D03*
X6530Y8150D02*
D03*
X6930D02*
D03*
X7330D02*
D03*
X7730D02*
D03*
X4530Y7750D02*
D03*
Y7350D02*
D03*
Y6950D02*
D03*
Y6550D02*
D03*
Y6150D02*
D03*
Y5750D02*
D03*
Y5350D02*
D03*
Y4950D02*
D03*
D20*
X13750Y9000D02*
D03*
Y1500D02*
D03*
D21*
X4650Y2550D02*
D03*
X6250D02*
D03*
D22*
X2950Y1950D02*
D03*
Y2950D02*
D03*
X10350Y2050D02*
D03*
Y3050D02*
D03*
X3750Y1950D02*
D03*
Y2950D02*
D03*
X7050Y3050D02*
D03*
Y2050D02*
D03*
X1350Y1950D02*
D03*
Y2950D02*
D03*
X2150D02*
D03*
Y1950D02*
D03*
X9371Y5273D02*
D03*
Y4273D02*
D03*
D23*
X8150Y1150D02*
D03*
X9150D02*
D03*
X6850D02*
D03*
X5850D02*
D03*
X1850Y7950D02*
D03*
X2850D02*
D03*
Y6350D02*
D03*
X1850D02*
D03*
X4050Y1150D02*
D03*
X5050D02*
D03*
X9350Y7850D02*
D03*
X10350D02*
D03*
X1850Y7150D02*
D03*
X2850D02*
D03*
X9350Y6950D02*
D03*
X10350D02*
D03*
X10338Y6049D02*
D03*
X9338D02*
D03*
X10150Y4250D02*
D03*
X11150D02*
D03*
X10150Y5250D02*
D03*
X11150D02*
D03*
X11550Y8250D02*
D03*
X12550D02*
D03*
D24*
X2250Y5450D02*
D03*
Y3850D02*
D03*
M02*
